<svg xmlns="http://www.w3.org/2000/svg" width="16" height="16" fill="currentColor" class="bi bi-stars" viewBox="0 0 10 10">
  <path
     d="m 4.6584299,0.24750009 c 0.11,-0.33 0.576,-0.33 0.686,0 l 0.645,1.93700001 c 0.2878499,0.8633166 0.9655261,1.5406223 1.829,1.828 l 1.936,0.645 c 0.3300001,0.11 0.3300001,0.576 0,0.686 l -1.937,0.645 c -0.8633166,0.28785 -1.5406223,0.965526 -1.828,1.829 l -0.645,1.936 c -0.1087104,0.3312399 -0.5772896,0.3312399 -0.686,0 l -0.645,-1.937 c -0.2876439,-0.863092 -0.9649081,-1.540356 -1.828,-1.828 l -1.93699994,-0.645 c -0.33124,-0.10871 -0.33124,-0.57729 0,-0.686 l 1.93699994,-0.645 c 0.8630919,-0.2876439 1.5403561,-0.9649081 1.828,-1.828 z"
     id="path1" />
</svg>
