<?xml version="1.0" encoding="UTF-8" standalone="no"?><!DOCTYPE svg PUBLIC "-//W3C//DTD SVG 1.1//EN" "http://www.w3.org/Graphics/SVG/1.1/DTD/svg11.dtd"><svg width="100%" height="100%" viewBox="0 0 291 266" version="1.1" xmlns="http://www.w3.org/2000/svg" xmlns:xlink="http://www.w3.org/1999/xlink" xml:space="preserve" xmlns:serif="http://www.serif.com/" style="fill-rule:evenodd;clip-rule:evenodd;stroke-linejoin:round;stroke-miterlimit:2;"><rect id="Artboard1" x="0" y="0" width="290.379" height="265.463" style="fill:none;"/><path id="path1" d="M248.395,156.983c0.734,-2.2 3.84,-2.2 4.574,0l4.3,12.913c1.919,5.756 6.436,10.271 12.193,12.187l12.907,4.3c2.2,0.733 2.2,3.84 -0,4.573l-12.914,4.3c-5.755,1.919 -10.271,6.437 -12.186,12.194l-4.3,12.906c-0.725,2.209 -3.849,2.209 -4.574,0l-4.3,-12.913c-1.917,-5.754 -6.433,-10.269 -12.186,-12.187l-12.914,-4.3c-2.208,-0.724 -2.208,-3.848 0,-4.573l12.914,-4.3c5.753,-1.918 10.269,-6.433 12.186,-12.187l4.3,-12.913Z" style="fill-rule:nonzero;"/><path d="M255.173,228.272l-0.019,13.662c0,8.728 -7.086,15.814 -15.814,15.814l-205.575,-0c-8.728,-0 -15.814,-7.086 -15.814,-15.814l0.003,-215.753c-0,-6.406 3.817,-11.927 9.299,-14.412c1.987,-0.9 4.193,-1.402 6.515,-1.402l205.575,0c8.728,0 15.814,7.086 15.814,15.814l0.016,122.174c0,1.072 -0.87,1.943 -1.942,1.943l-4.471,-0c-1.072,-0 -1.942,-0.871 -1.942,-1.943l0.005,-122.174c0,-4.128 -3.352,-7.48 -7.48,-7.48l-205.575,-0c-4.129,-0 -7.481,3.352 -7.481,7.48l-0.002,215.753c-0,4.128 3.352,7.481 7.48,7.481l205.575,-0c4.129,-0 7.481,-3.353 7.481,-7.481l-0.003,-13.662c-0,-1.072 0.87,-1.943 1.942,-1.943l4.471,0c1.072,0 1.942,0.871 1.942,1.943Z"/></svg>