<?xml version="1.0" encoding="UTF-8" standalone="no"?><!DOCTYPE svg PUBLIC "-//W3C//DTD SVG 1.1//EN" "http://www.w3.org/Graphics/SVG/1.1/DTD/svg11.dtd"><svg width="100%" height="100%" viewBox="0 0 367 67" version="1.1" xmlns="http://www.w3.org/2000/svg" xmlns:xlink="http://www.w3.org/1999/xlink" xml:space="preserve" xmlns:serif="http://www.serif.com/" style="fill-rule:evenodd;clip-rule:evenodd;stroke-linejoin:round;stroke-miterlimit:2;"><path id="path1" d="M57.286,38.991c-2.14,0 -5.17,0.932 -5.17,0.932c-5.755,1.919 -10.271,6.437 -12.186,12.194l-4.3,12.906c-0.725,2.209 -3.849,2.209 -4.574,0l-4.3,-12.913c-1.917,-5.754 -6.433,-10.269 -12.186,-12.187l-12.914,-4.3c-2.208,-0.724 -2.208,-3.848 0,-4.573l12.914,-4.3c5.753,-1.918 10.269,-6.433 12.186,-12.187l4.3,-12.913c0.734,-2.2 3.84,-2.2 4.574,-0l4.3,12.913c1.919,5.756 6.436,10.271 12.193,12.187c-0,0 3.012,0.938 5.187,0.938l306.384,0c1.559,0 2.826,1.267 2.826,2.826l-0,5.651c-0,1.56 -1.267,2.826 -2.826,2.826l-306.408,0Z"/></svg>