<?xml version="1.0" encoding="UTF-8" standalone="no"?><!DOCTYPE svg PUBLIC "-//W3C//DTD SVG 1.1//EN" "http://www.w3.org/Graphics/SVG/1.1/DTD/svg11.dtd"><svg width="100%" height="100%" viewBox="0 0 67 610" version="1.1" xmlns="http://www.w3.org/2000/svg" xmlns:xlink="http://www.w3.org/1999/xlink" xml:space="preserve" xmlns:serif="http://www.serif.com/" style="fill-rule:evenodd;clip-rule:evenodd;stroke-linejoin:round;stroke-miterlimit:2;"><path id="path1" d="M27.688,57.286c0,-2.14 -0.932,-5.17 -0.932,-5.17c-1.919,-5.755 -6.437,-10.271 -12.193,-12.186l-12.907,-4.3c-2.208,-0.725 -2.208,-3.849 0,-4.574l12.914,-4.3c5.753,-1.917 10.269,-6.433 12.186,-12.186l4.3,-12.914c0.725,-2.208 3.849,-2.208 4.574,0l4.3,12.914c1.917,5.753 6.432,10.269 12.186,12.186l12.914,4.3c2.2,0.734 2.2,3.84 -0,4.574l-12.914,4.3c-5.755,1.919 -10.271,6.436 -12.186,12.193c-0,-0 -0.939,3.012 -0.939,5.187l0,549.442c0,1.56 -1.266,2.826 -2.826,2.826l-5.651,-0c-1.559,-0 -2.826,-1.266 -2.826,-2.826l0,-549.466Z"/></svg>